<svg xmlns="http://www.w3.org/2000/svg" width="24" height="24" viewBox="0 0 24 24" fill="none" role="img" aria-label="Appointment icon">
  <!-- Calendar body -->
  <rect x="2" y="4" width="14" height="14" rx="2" ry="2" fill="#2B7BE4"/>
  <!-- Calendar top tabs -->
  <rect x="4" y="2" width="2" height="4" rx="0.5" fill="#2B7BE4"/>
  <rect x="10" y="2" width="2" height="4" rx="0.5" fill="#2B7BE4"/>
  <!-- Small grid squares inside calendar -->
  <g fill="#ffffff" opacity="0.95">
    <rect x="4.5" y="6.2" width="2.6" height="2.6" rx="0.4"/>
    <rect x="8.2" y="6.2" width="2.6" height="2.6" rx="0.4"/>
    <rect x="4.5" y="9" width="2.6" height="2.6" rx="0.4"/>
    <rect x="8.2" y="9" width="2.6" height="2.6" rx="0.4"/>
    <rect x="4.5" y="11.8" width="2.6" height="2.6" rx="0.4"/>
    <rect x="8.2" y="11.8" width="2.6" height="2.6" rx="0.4"/>
  </g>
  <!-- Clock circle (overlapping bottom-right of calendar) -->
  <circle cx="18.5" cy="16.5" r="4.2" fill="#ffffff"/>
  <circle cx="18.5" cy="16.5" r="3.6" fill="#2B7BE4"/>
  <!-- Clock hands -->
  <rect x="18.35" y="13.2" width="0.5" height="3.9" rx="0.25" transform="rotate(60 18.35 13.2)" fill="#ffffff"/>
  <rect x="18.2" y="16.4" width="0.5" height="2.1" rx="0.25" transform="rotate(0 18.2 16.4)" fill="#ffffff"/>
  <!-- Small outline for accessibility -->
  <title>Manage Appointments</title>
</svg>